<mxfile modified="2023-07-07T06:15:36.394Z" host="app.diagrams.net" agent="Mozilla/5.0 (Windows NT 10.0; Win64; x64) AppleWebKit/537.36 (KHTML, like Gecko) Chrome/114.0.0.0 Safari/537.36" etag="eDdRLpYFauhwzb_3KXdR" version="21.5.2" type="github">
  <diagram id="Ht1M8jgEwFfnCIfOTk4-" name="Page-1">
    <mxGraphModel dx="2784" dy="1715" grid="1" gridSize="10" guides="1" tooltips="1" connect="1" arrows="1" fold="1" page="1" pageScale="1" pageWidth="1169" pageHeight="827" math="0" shadow="0">
      <root>
        <mxCell id="0" />
        <mxCell id="1" parent="0" />
        <mxCell id="AeC9Hzk0l6iAubKt0yW3-4" value="" style="group" vertex="1" connectable="0" parent="1">
          <mxGeometry x="-1080" y="-760" width="1210" height="660" as="geometry" />
        </mxCell>
        <mxCell id="mmhwrJUQlcTfJpM30unk-1" value="AWS Step Functions workflow" style="points=[[0,0],[0.25,0],[0.5,0],[0.75,0],[1,0],[1,0.25],[1,0.5],[1,0.75],[1,1],[0.75,1],[0.5,1],[0.25,1],[0,1],[0,0.75],[0,0.5],[0,0.25]];outlineConnect=0;gradientColor=none;html=1;whiteSpace=wrap;fontSize=12;fontStyle=0;container=1;pointerEvents=0;collapsible=0;recursiveResize=0;shape=mxgraph.aws4.group;grIcon=mxgraph.aws4.group_aws_step_functions_workflow;strokeColor=#CD2264;fillColor=none;verticalAlign=top;align=left;spacingLeft=30;fontColor=#CD2264;dashed=0;" parent="AeC9Hzk0l6iAubKt0yW3-4" vertex="1">
          <mxGeometry x="40" y="202.26" width="439" height="353" as="geometry" />
        </mxCell>
        <mxCell id="mmhwrJUQlcTfJpM30unk-4" value="" style="shape=image;verticalLabelPosition=bottom;labelBackgroundColor=default;verticalAlign=top;aspect=fixed;imageAspect=0;image=data:image/png,iVBORw0KGgoAAAANSUhEUgAAAfIAAAGmCAYAAACHjgYxAAAAAXNSR0IArs4c6QAAAARnQU1BAACxjwv8YQUAAAAJcEhZcwAAEnQAABJ0Ad5mH3gAAE3ESURBVHhe7d0JeBRVvj/8byBA2BPZOihLWA1uhEUIrgTXoCJBGA2DMxpm7jBBvQ44/3HAuXOdqPd1wLk64B0dEJdJHNEEFRNUJLhggqIJAibIkmZPsyaymACBeutXfSp0ks7WSXe6ur+f5znprnOqO9W1/apO1TkVoulAREREltRKvRIREZEFMZATERFZGAM5ERGRhTGQExERWRgDORERkYUxkBMREVkYAzkREZGFMZATERFZGAM5ERGRhTGQExERWRgDORERkYUxkBMREVkYAzkREZGFMZATERFZGAM5ERGRhTGQExERWRgDORERkYUxkBMREVkYAzkREZGFMZATERFZGAM5ERGRhTGQExERWRgDORERkYUxkBMREVkYAzkREZGFMZATERFZGAM5ERGRhTGQExERWRgDORERkYUxkBMREVkYAzkREZGFMZATERFZGAM5ERGRhTGQExERWRgDORERkYUxkBMREVkYAzkREZGFMZATERFZGAM5ERGRhTGQExERWRgDORERkYUxkBMREVkYAzkREZGFMZATERFZGAM5ERGRhTGQExERWRgDORERkYUxkBMREVkYAzkREZGFMZATERFZGAM5ERGRhTGQExERWRgDORERkYUxkBMREVkYAzkREZGFMZATERFZGAM5ERGRhTGQExERWRgDORERkYUxkBMREVkYAzkREZGFhWg69Z6ILObo0aPYuWMbdtsLUXxgP44dK8H58xWAvlmHhGjyom/lIfqfVmjdug169uyB3hdfgn4DLsOgQYPQqVMn43uIyLoYyIksZvPmTfj2q2wUFdkR0TkEg3qHoH+vc+jdPRTduoaqsWqSLf1QSQX2HTqDXYfaYtvesyg/2xrDhg3DqLETMHDgQDUmEVkJAzmRBRw+fBjZH6/A999vwdC+bTFq0BkM7RemSptm446z+HprCPYfOY+rrx6Dm25LQLt27VQpEfk7BnIiP3bgwAGsXPE6jh7ej5tGhOLq6DaqpPnJniA7vwKff3cG0cMux52TZ6Bjx46qlIj8FQM5kR86c+YM3kr9B/bt3oG7xrXCZVFtVYlv5H5/Hh9+fRqjRo/RA/rPVS4R+SMGciI/k7vuE6zKeg+3Xd0W4y5rrXJbRuZXGr4uPIvEn8/E0OjLVS4R+RMGciI/8spLC3C+3IFf3hqC0NZyt3nLO3jsLF796BwuvWwEJk35pcolIn/BQE7kBw4dOoQXX3gG42Pa4IYrVaafSf9Cw4HSzpj96BMIMZq0EZE/YCAnamHbfyjAG6/9H2bc1BqD+/j2Wnhj5RZo+Pibc/jPuf+Frl27qlwiakkM5EQtqGBLPt5KewWz726DHhG1twH3J9/bK7D8s/N4+HdPoFu3biqXiFoKu2glaiFyJi5B/HdT21omiIvLokIxfUIrvPDcX3DixAmVS0QthYGcqAVIBy9SnS5n4l07teyd6Z4Y0icU91zfGn/7659VDhG1FAZyohYgN7bNuDnUUmfi1V0xoDVuHN4K//j7MyqHiFoCAzmRj73y8kI9AIZi8CXe66XNV66/IgRd2x3DR5nLVQ4R+RoDOZEP5a5bjXM/HfDbJmaeuG98CNbnfI49u3epHCLyJQZyIh+RbldXZa3EL28NvM3uF7eG4l+vvaiGiMiXGMiJfGR56ku4dXRbtAkNvM5U+ke2xcBIDZ+u+UDlEJGvMJAT+UBxcTH27NqGay4P3E1u2g0hyF7zsRoiIl9hICfyAXkU6aRrrHuHekNIr62xl7XFqpX/VjlE5AsM5EReduTIERw+uA+XRVn/LvX63H51K+Tm5qghIvIFBnIiL8v+OAM3jQz8IG66YkBbrM/5VA0RkbcxkBN52ZYtWzAmOrCr1V3deOV5fPHZJ2qIiLyNgZzIizZvyseQPsFzNi6kt7oz5T/i+PHjKoeIvImBnMiL8jZ8gdFDKtRQ8Bg1tA2+3bBODRGRNzGQE3nRzp07MLRvOzUUPIYP1LBp4wY1RETexEBO5CXHjh1DeKfA6/ylIXpd1AZHjxxRQ0TkTQzkRF6yc8c2DL7Ew5vczp1C7gf5mPv4W5jwwHuY/fwGLF19CI7TqtwC5Fr5oUOH1BAReQsDOZGX7LZvRb8eZ9RQI+wvwuz7XsS4332CjJ2SUY7CL/MxM/k1JK8+ZYzidBq56RuwMPtHNdycmv7d/XoBe/bsUUNE5C0M5EReUnxgHy7u0VYNNVQFsv/9IRZv7I2UNx9G0fKfYc0yPS3/NbTCR7H0etfr7eWwZ3+KuYWuwb25NP27e0ecRfE+40iEiLyIgZzIS44ePYZuXVuroYY6htwMPXhecyUSR1a7Sa51KMK7uFbVn4J9tf5SXo7S46eNVH7OWWL46TTshXuQvV5PG4+itHq1vF5eevzCHfXl8h2V49Tz3Q0gVetHDh9UQ0TkLQzkRF5y/rwnzc7aIWq4/vJlEXL3O3NqOoWMx19EyJBUzJfBl9IRMeoFIy3cLBmnkfXMywgZ/gIGTHoLE+7X07RXEBH3Fp7aeGGacpfpn5mRj9yiQsy9/0W01z+ftPpwPd/dcOGdWqO0tEQNEZG3MJATeYt2Xr1pjK6InxIDG7Zh+rS3MDd9DwprxMKOiH88CSUf3IYEGfyPKSj55mEjzbnCGAGR19+Ggi8fRlnhY9C2PYayz6dgTvc9mP98IezOUZwKNyDh4W3ApJuw5vWfYf6oiHq/u6E6tm+Fn34qU0NE5C0M5EReIk8D80R43E0ofPNGJEYcxcLH38KwMS9i2O/WI2PbhbrxsC7tLlSzh4Xp72W4HcKMmvx2iLmmL6J7mMP6KLYBmBKnv/nyFBzOLOViLHxpEhZMGYK4sX0RYwut57sbLrR1CCoqgq8zHCJfYyAn8kPhI0cj9YNfo+TDKViU2AvlH3yBKXcsxYSXDqBcjVOv06fhKDqA7MIfjWvhZbW1hGvsZXwi8isM5EReomlN7QwmFOEDBiD5z1NQ9OUUzBt+CtkLNyCj6im1W/ZVH2LAFS8g8rYPMP+ZdESP+hsmPK8KfeRshYY2bTxsR09EDcZATuQtntatu9NjAJLu6au/2QZ7fYF892bMfmQzwpN/hpJtv0bO6w+ieNtjyElW5T5ysuw8OnbsqIaIyFsYyIm8pHXrNvpZuRposgoU/iCdqwxBlM2Zo/8DhKm3VRSXIkt/mXJDX4Q7c5wac3Jc23c3QumJcwgPj1BDROQtDOREXtK9ezccKjmrhhrqFLIWf4rFHxSpa9tynXsP0ha+h6Q3AFviFYg3A3mPcAzrob9+XIClnzvbi+fuPg10DUOMnp3+cRHsRhvwH5Gb/inmpxmfapjavrsRDpWeR49ekWqIiLyFgZzISy6+pB/2H27sXduh+pnwUSz8XTomTHrZaL8dedtbmP7SUYyYOQk5TwxwOcvuiaRnRiPuSD5mzpT24h9g6Tb9/0XHYPGcviheko4BRhvwt5Cysxfm/GaI+lxD1PLdjbD/SGv0vmSgGiIibwnRdOo9ETWj/Lw82Df+CwnXeXDD17kKlJ46jeKiH/Ujgm6IlCZgdTwNtfx4BcKq9Pqmk57bJPa2q/uz9XH73Q3w3Nun8cCsPyMigtXrRN7EM3IiLxk0eDC27/OwHbXRHWtHRA/vbbQHry8Quw20HZztv5sSxIUnQVyUntQYxIl8gIGcyEs6d+6snxQH5ya29+AZREby+jiRLzCQE3nRpZdeik07gq+b0o1FrXFVzFg1RETexEBO5EWjxk7Ahu2NfZSp9X2ztRwjR49TQ0TkTQzkRF40ePBg7DnYyOd/Wtzeg2fRvYcN7do18eI8ETUIAzmRl40aNRqfbfLkSWjW9Omm1rh+/G1qiIi8jYGcyMvibrkb2d82+FEnlnb6rIYd+ytw1fDRKoeIvI2BnMjLpL/xwUOG4uutgV/F/sF6DXETblJDROQLDOREPnDn5PuRmdu4Lk6t5sRP57BpZwVuiLtD5RCRLzCQE/lA165dMTxmJD76JnA7Ulz+GXDHnZPVEBH5CgM5kY9MnvoAcracxbHjgVfFvrnoLH461xWjx96gcojIVxjIiXxo2r0z8OpHgRXI5WkNb396Fj//5UMqh4h8iYGcyIcuu2Ik+g64HO/nqowA8HLmOdwWP4n9qhO1EAZyIh+7596Z2F7cFt/8YP225SvXA126DcC4625WOUTkawzkRC1g9n8+gZW5Fdi+76zKsZ4vNmuwH+6I++5PVjlE1BIYyIlagHRfOvs/5+GN1eew23FG5VrHV4Xnse77Vnj4d/+lcoiopTCQE7WQHj16YNZDj2PpqvPYttc6Z+brtmjI/i4Uv//j0yqHiFpSiKZT74moBRw5cgR//1sK4seGYsyl/n1snfkVsONgBzwy588qh4haGgM5kR+oqKjA4udT0Oein5Bwrcr0M//MPIcO4VGY/svZKoeI/AEDOZEfee+dV7G1IB+/uKUVbN3aqNyWVbDrHP6dfRq33BqPa2+MV7lE5C8YyIn8zLYfCpH2xssYMSQUd8WGqFzfKzt9Hss/03Dsp46Y8cDD6N69uyohIn/CQE7kp1at/Ddyc77EhJHtcMNVvrt2fv488MFXGr794Qxuu/1OxF7Lp5kR+TMGciI/dubMGXzwbio25udhzLC2uPGqEHRs752gfvBYBdZ+F4KCXWdxw40TMOGWSaqEiPwZAzmRRaz95AN8/tladOlwDqOGtMLwQSHo3KG1KvXM4dIK5G0PwYatZ9C+QziuH38LRo+5TpUSkRUwkBNZzMGDB/Ht15/hu415KC87ib692qJfr/PofdF59AgPRXjn1mgTWvXaevmZ8yg5fg6HSiqw/2godh3U4Dh6Dhd1646rYkZh1NXXo3PnzmpsIrISBnIii9u9ezd227ej+MBuHDl8CKWlpUaV/MHDPxrltp7hCAsLQ3h4OHr0tOHiPgPQr/9AREZGGuVEZG0M5EQBatq0abj77ruRmJiocogoELGLViIiIgtjICciIrIwBnKiADV8+HD1jogCGQM5ERGRhTGQExERWRgDORERkYUxkBMREVkYAzkREZGFMZATERFZGAM5ERGRhTGQExERWRgDORERkYUxkBMREVkYn35GFED+/e9/46KLLjLef/TRR8b70aNHG8OnTp3C5MmTjfdEFDgYyIkCyMyZM3H8+HE1VFWPHj2wePFiNUREgYJV60QBJC4uTr2rqnPnzpg+fboaIqJAwkBOFEAmTJiAnj17qqELunfvjtjYWDVERIGEgZwogPTq1atGwJaz8UmTJiEkJETlEFEgYSAnCjA33XRTlbNyno0TBTYGcqIA43pW3rZtW56NEwU43rVOQa+oqAjr169Hv379cOjQIRw7dkyVXCBntRIQxdKlS43X6kaNGoWrrroKJSUlyMjIULlV3XPPPejatSvy8/ORl5encqtKSkoyXlesWOHxtAwcOBD//Oc/0bp1a1x//fVuA7mvpqW558vGjRuNZnV9+/Y1homCHQM5BbVVq1Zh586duPjiizFixAi0alV7JVWfPn2M17179xqv7sg4ErBOnjypcqrq0qWLEbDq+w7R1HHeffdd2Gw2jB07VuVU5ctpac75IsussLDQOECRgwSiYMdATkErLS3NeJ02bRpCQ0ON92QNO3bswNq1a43gL8uPKJjxGjkFJTmrO3HiBBITExnELWjQoEGYMmWKcSmktqp4omDBQE5B6fTp07j11lvVEFmRXCeXgC7V7ETBjFXrRGRZsvtKT0/H3XffzZoVCloM5ERERBbGqnUKOtLE6b333lNDRETWxkBORJb20ksvobi4WA0RBR8GciIiIgtjICciIrIwBnIiIiILYyAnIiKyMAZyCjrt2rXD4MGD1RARkbWxHTkRWdqWLVvQrVs3REZGqhyi4MJATkHn8OHDxmuPHj2MVyIiK2PVOgWdffv2IScnRw21rNKt2chemw9HucoIZOUO5K/Vf+/WUpXRPI4ePWokomDFQE7UWBUO5L65GHMfnIAJt0zB7D8txNIVngXjwrf174hLQfYRleElhcumY1zsTGTsUxlNUL4vXz/4yEZhY6f5SDZS4vTf+3bzPuTknXfewZkzZ9QQUfBhICdqjF1ZmH1dJMYlzkaGEY9KUbh6MWYmjEDyCocxiv8phT0/G7nrM1HoGsh3ZGHhX5cit5EnyKVfpOgHHxOQsUNlEFGLYiAnarByZL+chMXrY5HyRQmKctdgzcd6yi2CdrYMS28PV+P5m3DEP2dHSYkd88aqLOHIwdzfZ8F+Ug0TkSUxkBM1WCFyl+ln3TcnIfHaakE7NAzh4WFqQHeyFKWlNevay0vd5xvK9bP79bVcM68o1z9Xqh9KOJU79GlZq59lV7nerI+zNdeo9s7fV+0LymW4vPLzwrHXWcVdZkxTHdPVYBf+f/ZGO8orVHYtync5q+ir/gYiaiwGcqIGC0dUrP6yOgu5u5w5tcn9WwQiIhYiVw07OZDxa3f5pch5bgoGtI/AsFi5Zj4Cke3HYfZKuyrXfbNQ/1wcUt5Iw9y4SLSPHIZxcRMwLjoCAx5OQ/abczFxcHtERI8zqr1H9InChL/nqw+b05PkvEauf9eAkBBEJmboAxmYeYWU6enXGfoUeqZ842JMcfn/E2IGoH2fCXhqnZsgvTnV+RuiRhjjym+IvGsh8lkzQOQRBnIKOkOGDMFNN92khhojCvEPJMOmB7/pesCdu8yDG77cKoC9RxIyD5dBWoOW7c3EvLG5WHzXbCytch06H0vftiPuxXyUndWglRVhyVTA/vfpmL86CskrS1Cmf147vAbzhjuQ/XB6tQMGZXgy8kpKkPm4DCRgyeYSlOjDJS8n6L/NA0eyMPf22cjoPg+ZdvUbDudgwegCzL9uerXfoNsLRD+d4/wNZ0uQ93IisHIu4p/OrlJjQEQNw0BOQadjx45G8kT4nYtQ+MUCJHYvwMIHJ2BYj0gMS3wKGVuaUj08DtNnxCO6u7NqPuySeKT83wLEIAuLV144qxbj7ktC/KU2hIXqA2FRmDg5wcif+OtkPT8cxjd0j8NEI7sQdnd3qRuXAcIR0d452F5/L8NVLg00gn3lYix2xGDB/6Ugvr/6Dd1jMec5fVj/DfPfrHY4ET8dSWOjnL8hNBwxv9I//wDgeCYD2R7MxsTERHTq1EkNEQUfBnIKOvn5+fjmm2/UUOOFXzsHqZvtKCnMxKJZI1D+5nxMuSIaE57Jbb4zyktjEKe/5G8vhn9fQS5F4YYs/TUOMZc6cyoNGoFx+im+Q59XdVfZ68E8Vn5tDgrruWThTufOnY1EFKwYyCko7d+/X73zlH5We2k8kl/MRFGxVIU7kP3HBc3STtsQ1h4R8nrkwg1u/qkcpcblhQi0r3FCH4mo69TberTvJDcP5jvvyWukvLw8FBcXqyGi4MNATtRUtngkPShnlBnuq7I9UVoCIzRdGuXZdWsvKjspdQT6VEnVuH42besvr8UoqVF1YIf9bfW2HsUOubEvAVEe/NgNGzaod0TBiYGcqMnKUbg5W3/VA9Elzhwnd8GtYco3ZCNdf02KiXZmeEFYqCeHCOWwb5ffGodo47eGYViMXJBPR/aGaqfTG3OM3xATG13PwYgdeavzgeHjEG0cFBBRYzCQEzWYA1l/mYvFb2YZ7aSl7bVjazbS/jgFSX/Xz1FnJSFeBfKwTjH638VY+mY+HNJGe1cu0v6SjPluz1AzMP93TyFtbaE+rgOFq57ClPsXwjE2Bcle7GQmcpCzFiF1WYaz7fcqfVqdRVU4NmYhd6tD/7125C6bi/l/1TNvj0OMis62O+ciZawDC387G4vXq/myMQ2zZ81Fvi0R86fKvHDx4nzM/HsG8nc558vSh6dj5iobEv84HdXGJKKGkKefEQWTvLw87d1331VDjVGirXkyXovSNxvZdC6kKC3+sXSt6KwaTezN1JLHuoxji9YSn83R1rwYpw+naDlqtJwn9bKbF2mZGXO0+EEXxreNn6Nl2tVIIjfFyE9IK1YZTsVpCUZ+Sq7KUIzvRYKWutf9sKEsT1s0Ncr4vJEGLdDyVJGrvKdtF8bRU41pE/ZMbc7tLt+lxkstLFMj6Pamavq5u5actkZbdF+0ph8HqHGjtIQX8jSXMRvlH//4h3bgwAE1RBR8+BhTCjpy1/qePXswadIkldNI0svayVIUb7UD/aMRKU233Lbckt7YnNXNYfo4DWncJT2/lcuNdB42BfNIuX5mjNp+g1N5qQP2XSWI6B8FWx0jOqdfNOA3yP/VRw7rpM8b43q7Z1566SXcddddfB45BS0GciKyNAZyCnYM5ERERBbGm90o6EjV+nvvvaeGiIisjYGciCxtxYoV7BCGghoDORFZ2qFDh9Q7ouDEQE5ERGRhDOREREQWxkBORERkYQzkFJRateKqT0SBgXszCjoxMTG488471RBZnc3mycNfiAIHAzkFlVOnTmHt2rVqiALBddddh3379uHMmTMqhyi4sGc3Cnh79+5FXl6ekQoLCxEaGorx48fjV7/6lRqDrOzrr7/GggULjPdS2zJ27FiMGDECXbt2NfKIAh0DOQWc8+fPY+vWrfj222/xzTffGJ2FREREYOTIkRg1ahSioqLw5ptv4je/+Q2vlVucHKR9/PHHuO+++4wDNVneGzduRFlZGQYMGGAsb1nu/fvzQecUuBjIKSCUl5cbXa/KjlxeT548aey8zeA9cOBANabTK6+8gh49evBaucW99tpr6Nu3r1HDYjp37hwKCgqMdUEO5qTDmO7du1euC5dffjlat26txiayPgZysqwff/wRX331FTZs2IAtW7YgJCQEl112mbGzHj16NC666CI1Zk3yGFPp2vPqq69GbGysyiUrkeV3+PBh4xKJLPvayFm7BHVJO3bsQFhYGIYPH24sewnuMkxkZQzkZCnmTlmui+7cuRPt27fHmDFjjB2y7JzbtWunxqzf9u3b8eGHH+KSSy5BfHx8oz5LLefIkSPIysoyqs9lufXp00eV1O/EiRPGgZ+sP1IVL6688kpj/Rk3bhyvq5MlMZCTX5PVc9u2bcaOVwK4XO+WalI545Y0bNiwJl3nljM0ueP5xhtvNIZTU1ONqtnq5ExfdvYSCORM0J2JEyeiW7du2Lx5s1G97879999vvK5cuRIlJSXGe1cdO3bElClTjPevv/668VpdsE+LPH980KBBxt3qbdu2NfI8cfr0aeN6ugR2CerSokGuq8uZuqxbcoBHZAUM5OR35GY1uca5fv16o+pcqtD79etXGbzlZjVvkbvaa6tqlf8rAUvOCN3p0qWLEbDsdrvKqcmc9uYYJ1inxRtknZNlbx4wSpV97969jTvg5dKLrH9E/iqEgZz8gexI5YxNgrecIUlgkLMuqTaXKk85CyfyFTmgkHVRktQC9erVywjoEtjlrJ3InzCQU4sxg3dubq5xJiRVm0OHDq08C5ImY0QtTW6MlJohCepyj0bPnj2N9VMSgzr5AwZy8ikJ3t9//70RvGXnKM3EJHjLTpE3G5G/k7PzL7/8Ejk5Oca9FXKmLuutrL9sq04thYGcfELuEF+3bp2xAzx+/DgGDx5s7PyuueYahIeHq7GIrEMCuazPclC6f/9+45r6tddei+uvv944ayfyFQZy8ho5e/n888+NAH7w4EEjeEu1uezsWG1OgUSq3CWoS5L1Xjogkrvq5UCVtUzkbQzk1Kyk6ZAEbklyw5CcpcgOTc5SpCc1okAn670cwEoVvNQ+SRM92Qbkxk3p94CouTGQU5OdPXvWuN4tTxWTHtakuZGcicjOq3rXqETBQnatmzZtwhdffGFsH3J/iARz6U5Wuomtqzc6osZgICePSWcqErylOlE615COQaRjFXkCFR9GQnSBbB9yLV22F3mgj7Srl21FgjprqqipGMipUeSZz1JtKE+c2rVrl3GnruyQpOq8U6dOaiwiqo3cL/Lpp5/is88+w9GjR40uYm+55RbjQJgHwOQJBnJqENn5SP/WsgOSPq7lTOL2229nkxuiJpDOj+Sg+LvvvjNuAJWALqlz585qDKL6MZBTneSa9wcffGD0RS3VgTfffDNuuukm4zo4ETUPh8NhbGdyli7V8HKgfNddd+Hiiy9WYxDVjoGc3JLnOL/11ltG9bn0XnXHHXcYzcaIyHuktkuuo0tQl77r5X6Tn//85416whsFHwZyqkI6bvnXv/5lPEBCOmy57bbbEB0drUqJyFfk5jh5opwcTEsLkHvvvZc3xpFbDORkkH7OX331VaPtq+w0Jk+eDJvNpkqJqKXIQfW7775rPJdAtktJoaGhqpSIgZx0cl1Onjctz1+ePXs2j/qJ/JDUlr344otGe/Tf/OY3rCmjSgzkQUzuRP/HP/5hdC95//33G03IiMh/nTt3zjg7lyp3qTmbMWMGOnTooEopWDGQB6mCggI888wzxpObJIh37NhRlRCRvzMPwg8dOoQ///nPrEULcgzkQUjarj7//POYNWuW0ZUqEVnTK6+8YtwU98QTT6Bv374ql4INA3mQkaYtsvHPnTsXV111lcolIqt67733kJGRgT/+8Y/Gs/0p+DCQB5Hly5cjMzPTOHofNGiQyiUiq5MbVv/5z3/i0UcfNbp6peDCjn2DxPr16/HOO+/gkUceYRAnCjA33HAD7rzzTixYsACHDx9WuRQsGMiDgNzpKs3L5Hr4iBEjVC4RBZJ77rkHPXv2xGuvvaZyKFgwkAegffv2VUmpqan46aefjIecyDARBZ7i4mJMmzbNuJlVOnaqvh+gwMVr5AHoF7/4RWVzMlm8x44dMx4x2qZNG6NHqEWLFhllRBQ4zO1eemk8e/YswsPDVYnzeehLly5VQxRoeEYegAYOHGg8cEGSPO9YgvmJEyeMDVwefkJEgWfMmDHGNi8PXqmoqKjcB0iSzmMocDGQB6BJkybhoosuUkMXyBE6N2iiwCSXzuQaeXWSJ884p8DFQB6ApH1479691ZBTu3btMHHiRPbgRhSgoqKiMGzYMDV0wahRo2rsDyiwMJAHqOpn5TwbJwp81c/KeTYeHBjIA5TrWXnr1q15Nk4UBKqflfNsPDg0y13rx48fxw8//GA0cartObmXX345unbtivz8fGM8d8x+v6XpRG3qG0fuzpYgVlJSYjwYxJ1gmZbdu3dj5cqVxt3qycnJxs0wnC9VtcS0rFu3DqWlpejfv7/xKEo50Ap033//PbZt22b0aRAZGalyq6pvHnbv3t3oglSaWRUVFancqiRwyWUk6QBJ/pc7zbHe+PO0yINUpPOnkJAQ3HvvvYiIiOB88dG0tJQmnZHLMYDslKTrz/379+PMmTPGHZPukit35ZJM7srMZHJXJsmVu3JJrtyVSzK5KzOTyV2ZJFfuyiW5clcuyeSuzEwm1zypVpNAJStzWFiYGqNlpsU1uXJXLsmVu3JJJndlZjK5K5Pkyl25JFfuyiWZ3JWZySRNg8rLy/Htt99iyZIl+Oijj1RJ4JHg/eqrr+Krr77CyZMnjWZQ7uaNJJO7Mkmu3JVLcuWuXJLJXZmZTO7KJLlyVy7JlbtySSZ3ZWYyuSuT5EqGO3fubAQxOWCS7d7dOO6SyV2ZmUzuyiS5clcuyZW7ckkmd2VmMrkrk+TKXbkkV+7KJZnclZnJLH/jjTdqPSHwpiafke/cudN4hF6XLl1UDvkTWbxyFslqdf+Ul5eHjRs3GgddgdY0UJ6bfeDAAaM3wbFjx6pc8gUJKtIETYI6+Y50xvP111+jT58+uOuuu1Su93kcyCU48IH2RE0nO9xPPvkEN954Y5WaEyuz2+3Iysoyug3t1auXyiUKfPKseDmIlZuL3bUi8AaPArlce5VqwYSEBJVDRFSV7Cf69eunhoiCh1xPl9rq+++/X+V4l0fXyGUCa7thhYg8I9WhP/74oxqyPgZxClZy85vc0Oqr6+UeBXKpOmAgJ2pecr188+bNasi65AEd0oqFKJhJaxi5I94XPArk0n83b54ial5y34nD4VBD1rV161Zs2bJFDREFJ3lGvDz3whc8CuTSfKZt27ZqiIiag9xhHAh3GUuTR0lEwUweVCXJF5rUjpyIiIhqys7Oxo4dO9SQd3kUyB988EH1joiIiFqSR4FcuquURERERC3Lo0AuPVEFUjMZIn8wcuRIxMXFqSEioobxKJCvXbtWvSOi5iIPt5FkddId66233qqGiMjbeLMbkZ+QJzDV9YQlIiJ3GMiJ/Ig8Iczq5IAkkJ/oRtQQ0rubPDzFFxjIiYiImpk8SlaSLwR3IHfkI2PZQiz862KkrbWjXGVTPcodyF+bjeytpSqDKACV2pH95mJ9/7AQS1cUgmt7w5Vu1fcPa/PhCOKdqvRu6KseDj16+tn//u//4oEHHmh8EzQJALkFKEEkRoyPRrjKvqAUhWvzUBw5AnGX1iz1TCmy/zId83PjsDhjDmLMp0Tuy8D00VOQ5rAhevwwoDAOS4vnIVYV+yPZOPKK1YCpvT4vh+vz0pdPv9yXhil9piPjyRxoT3g2xxzr05CekY2MjXaED4rFuNH6Mr85HjGXBMZjPD0hVdLSGsTqN4o15XeY63jE4HFu14XyffnI2Q4Mi42BrblWla1LMf2BpWj/+wwsmWxz5pXn46nxIzB/PRA1Ng62I+GYvTYdiZc4i/1S5f61qogofV729+12lfuXEIz7UwJS9zZ+nrndz1WKaN5l70Xvvfce+vbti5iYGJXjRRLIfWZvqpag/0vApiW/X6IyXeVoKVL+ZI4abowSLeeVBdqC94vUsKlAWzRW/meClrpXZemKXo7T82K0BfkqwwJynpTf4SbZ4rSU3DI1VmMUaZnPLtCW5LpbFnUwl6NHy0n/nw/FOqd7UKwWd3OcnmK1KBmemqoVq7GCUW5urvbhhx+qIetqyu+oXMfHLtDyVJ6r4rQEvbzqttxg2zO1Bc8u0XKqre4lWcmaHr41m8v6XPbxHGM6kjIauW20pMr9a80U9UC6vuU1XknuEn2eZTb6s87l6NlyqnU/ZyQPl30LePfdd7W8PHdrcfNroap1Bxb/OgXZzXpfTwnsK+di7sbqD52IRvLaEpSUpFY5MnQ4svW/UYj0zSWMZiRHuZocgDnT4TVI6Z+N+ZP1+dnoaiwHcn4/F1l239V/la9diqS/5yJWP5sv2Z6DNR+v0VMO9B0Fyl6Md1NLQ0Fp/VzM/6ddDTQTRw7m/j4L9mr7nfDbF8Feou8/Hr9Qu1R6xPm/oyItuEZKTZm5f9DKUPR6IsqWTcHsZY2fnyXbs/R5lq/vKXyt2n6uMvl5rUgL8SiQS5VBUzqESXhiHhIcCzH32dyGX5c+aXdel12bi8Ij7j7lgH2F/lJWYjwHVlJ5hbOkvI5/UqbGLS3VRyqv+rkq6ipzVc90lsv/MnckFeVwbM3Vx81G/r4Gz4mqusch8bf6cbjjKeRuVHlKeak5LdnI3apPu8qvtM+OQnk96TLPjIILnN+h/xaHm8+bTjpQuL5h18QK1y/Vl1Qcku6LrRG0w7qHo7LGTJ83bud3Hcuhvmmts7zyN9S2funTo5ZV7lZHzf9fudzzYZd1yQOB0v5aHqjUo0cPNeSJZMx7IgZZv56LtF0qq14Xlk/2Rrvb9cOx11jbq27zQl/X5J27z5SVmOM61xlj+61l+dZVdkE902mu92qwchteX4hSN9NXvzBEzZiNJP1d1qrcqgFZ35bM/Y+x3ro5sXLsytD/lqFEzYPKfZfJ/A79t9Qoq6T/pl35xv+R/VDzUPPJnCfGfkHNtZNVl4OxXKotlnI1PcZ8rbHI6vhuf6Uf5TTac889p+k/VA01gqr6SUgr0vKek+rV2GpV2+6q1ou0zEfjjKovmVwzRT2QqhWdlfJiLf0BW5UyM6XkOstTp8pwiv7tug0pNb7LmfTy/AVajP4+5rma1SE5T8r/SNLSD6uMGuqbTqGm5YFFWvqziVq0zXVcmxb3Qt3VMLVVVxW9LtWNLpcJSjK1OYNcv9uZbOP133hCRsjTFrgpd/3ussJUbc74avN1Rrqz6tuswntokZZa/Tfb4rRFdVyucE6rvg68Xk9lXW6KMZ5zGV7grFqtml/ntNZbXqblvZDgrNqvTPqyeDpHL1Hs6VpS9fll09cF4wvKtJyn3Sz3Z31TpRZonOu4vp4eztSS9e3DNitTc63cdle1Xpa/SEuosXzitJQv1Cc3LKi2fFUyL+WodS0hTR8qTtcSq49nJPmfJfq+Rt4na5nVa9zVNhFTx3KvdzqFMS0x2rzX9XX29qiq4w7S/2+t+x9drZe8crR5ku8yLwterLnOAlFa0nLndlmckeR+P1n53SVazrM1t5uUDc5Sc1+14PUFNX5z1ENVl2l1DaqWV781OaPAZTqc+3jj88MXaDku272xbIVd3zdW3xfI79ZjUqU6vrsxfFm13kKBXJ+pZXlaily7vn2Jy/WXmoHcGfBtWuLLeVqJ7FnPlmkFGclarD6e7bE1xs62rKREK9m8xLkSP66vJDKspzIV6KsEcv3zUpb5uOQlaEs2O8ctMb68SFtyu56vrwRVZn/ZGm2e7FQed/4/dxoynRemJUpLeDJVy7GrbyvWV67hkj+vzpWl5gqu/5b8VC1Z/6zNJXBpJXnamuwCrdiYEFGmFb8/xzhIiXvZObeNeZY1T/8+fXm8XHBhnkmh2oliUJK2KLeosqxoe7Gz3NxhDErQUtJytCLj4ED/Gep/4Ik6foX53RIsH12irSmsZZNuaCCvb1rrKS95X66PxmjJ+g7MnFtFryfqeTZtXrYxhpY5S//88HnamsqdqD7f7UVasRSrg7+EVy58XjtRrBXY69pVuRco18iPHz9uJE9UBnL9ffFy53KY83HlnK0ZyM3lO3aelqm2p7LDOdqCO2VnHa8t2a5n1LnN61wDuSxbvazgZed6Ni/LHNe5bZRlzzMCXPV7fIpeib/w/9xpyHQKNS228fr6mqVvl8ao+vS86JyeOg+A3QXyE0Xamidl2mL1IKt+r64oN13L09fRyl3E4TxtkbFvmqOtMX6o/OYCbclkydOnWc2DErWtm/u7uCfStYJiVVZcoBWpbcS5HPXyXy3SMvVt3PkzCtT/0Jef3RjNLXM/d2E5XUiVv0D9VpstSv8fC7TUrDXGPk+Wivm/bZcnaHNeSdfz12h5e+WT+gmMxBxborYkX33XiQIt3bhnx2U9q+O7GyM4Armu7It5zp1g5cpZLZCrAIoH0qvNxDJtzeOyAbhs0O5WYkO1QK7UDIpOJfqRaPWb4Jwbr7ljd6PB0+l+WkTOE+6nx5Vzmt2kS/Wzwzo2DCd1VO46f6rswC5w7pTq+L21zmv1P+q7aU12YPdFGztE+f+2yxO1FP3ot8q8a2Agr29a6y7XD9xu1qehxnLTDzJleRq/Ty2zm10POF2o6XQNNp7izW7mOm5uH0XOea8fRDlrkmoGcufydXPT6vYlWrysWy7raG3bvLvtoMYBYyU9GMhBd5V1Rp0AVDkpqarB01nLNqnZa9vmXJjbpZsU/6x+gqFGq42ztsx1/tSyvzL3d3X83trmtVkjV3O+XlDrfs71+8zf6uakofJ/V9snmgdhNW5gNH+Pud+q47v9VYu2Iw+7dj4WPGZDxu/nI2OfynS1NR9ZDiAuNqba9dQwDIuRh0tkwO7uc00Qfl08kpCP1NX5KqccOauXwjF8LqaMr6XNQ3NMZ4O72I7DvOVroB9lqpSORbEFmBI1Dk+tr3odp7zUed03f5dc2ypDe5Vft3LYC7P01ykYV9lWr+Ea9D+6x2JOWgHshwuQ+UIyRpSnYX7CMETHPYXcWq+zuVPftNZTXlqI/NX6a2gx8ozrhGayo+wK5yj6QQDipibCtnomJsTPxdK11a5VDo9Hylhg4f0jMP2vGZ7f60BuRCHx6SWI3/gU5vw9X1+a1ZWicIMs3zjEXOrMqTRoBMbpe23HZnsz36gVg7hE/fRjWRayj6isHdnIWAUk/WqKPsXuNMN0hqrXhvjVIpf9wxpkpumH18+NQPT9aahyu5tcj5drxesL4ShtxLXrfXbk6hMbc/OIWn5v7do3+HdU389Jmo+46jcn17XfrPa/CjdmGffnxF5R7e6csGEYcbP++ra96vyx0GMPWrhDmDDE/X4pkpGG5Beya26o5eV6SNWDa6ea4cHWZ5h618y6xyPxcRvyn8tCrgyX5yB7mb74f5ugb8K18Ol0hmNYbBzixpspAcmvLMaC4bmY/2SqWhHtyHhwANpHRGLYjPmYe2c0IjpPwHyjrD6lcBg3GEUiwss37IZ1j0b8Q4uQWViMzMdj4VirH9itbMxut75praf8ZCmM5qprU/HUM0+5pMX6stfnrWqcb5u6FDlZCxC7NxUz44Yhos8EzH2z0Lm+hsVg3so8LJkRhdzfT8GIPu0xYNpC5Jo7eWqaQUlIeS4WuX+cj9QdKq+SHoiM+RyB9jWO0yIRdZ1628xiJicjHkv1g33numr/IgNZmIPE22vbYHw8nX1GuOwf4hB/XwpSX0yC4405+oGocy9bvv4pTNDX1YioeMz+YxLGRURgwP1yY1sDHHHAaPNji3QOe0X1/ZykprUfLz9p7KXdLAMbIgert80oMzMT+fnmCaF3eRTI+/fvr941Az1wzn8uAY6/zkXKumpdGXTXz4b0F7ujZu8ADnueetfc9IOLaXMR41ikH6nqCz83G0sdenAfX8exZ4tMp6tI54q4ymEc1duXzcaUZeGYl10CTZp4bS6GpuVAPy5vgHDYjMVbgOLGxNSmCLUh/sEkYx5m7GhME5n6prWecn25GUv1/oWqGVy19JB56BaGqNvnIFWfj2V7c7BkahkWJsZh7ip1FtM9BknPZqLobAkKslIQ/cVcjLtzsbNFADVZzKyFSBmehZl/1M8oq9y5bS7fYpTUOKHUz67eVm+b26ApSHpAX1dXZOvbmx3Zb2fB9ng8xtUaZFpoOl2ER8qa7jBabKA8GymT5yP7uiX6OluMgmxn88+i1xOcI9dH7e9ydtXaa4tfstmMvTSKaxxk60txs3rbjCoqPGpm4BGPAvnkyZMb36tbHWz3LcCS2/Px1GMpyFR5hkHDEGcD8lfn6bPfVSlyVsvRY/KFqqrQMH1320yG62e5tzuw6P0sZK16Co4HkjBlkCpzpzHT6Q3lBSj4Qn+92aYfW+qr6nZndfLE8VXPEGrUF4TKsWh1etCKjtdf05Cd77tq4vLt+cZRfsKgqgdMxYfrqvKrb1rrKQ+LQvTt+mtGjlGj0hBhl8Qi6en5+hJ1IGtLtYOO0HD9++ZhwZ9igfX5KORZefMIi8WcZ+fA9vYczHnRdZ7LpSsJPunI3lBt+W7M0XP1g4DY6Mp1PEw/YGwe4YifMU+fnlRkrsxG2qoYzJ0WV8f+p3HT6Q32whzjNaq7vk/YZ0e+fmCbMHkiolyqn91Ve4e5+1GXRCFWn1jH2hxLHaxGXRGnz2N9P7Oh2nZ7JEc/GNNfZ8Ug2pljOS1ctW6K0neOCxC7PtdZnV0pFonPJcK2aj5m/inDOJosLdWPgJ+ZjuRleunT+lmcGatsURgmW0JGKpaucl7rzN1RVxCoSxTipsbDsSwJyX8F5txXX0cljZjOJitFQa7L9dxVaZg/bTqectiQ/JDzGl1EDzmTTEf6SrvRHrJ0Vy6W/m4+Fhmfd3FJtPMs+I2lyDC+Lwv5+/RfP1XfYerzcvGDEzF3mZ63y9lWNOvN7GoHKo3nWPkU5v49DVlGe2t92hyFyH5zPqY8uFhfhslI0g9GDPoeRH7F4jdS9Z2Oc37mvvkUkvX566q+aa27PApTZiXDtnEukh9eiuytDuf8knsL1qZh6VqjfkOfPufnzLL8N1P1uWtD/OVRKF2fhQx1jdE5r7OQ+rq+Fo/VdwoedDYUEhKi3pGrsJvnY+ksIFc/QHJlu3MuUsY6sPC3s7F4vXN9d2xMw+xZc5FvS8T8qRcuiEUOMtZ2pC7LUNuO5x2dhMXGIcmWhfm/1s9sb05GwnBVUIvGTGeT7c27sH/QU8bfZ2L6g/rB/dgFmH6zHpm7Rxr7iYwV6Wrb0tf3VQtrbFtymB8VLdtjOlL/meX8vnX6tIfpv/1J/QB59WxMnLZQrf/S3j0DWes93edWV20/V5ma0H/72EQsnGFD1p9mYv4Ktc3uysZTDyZjqb4PT3kwrp79vB9TN701yvPPP98sd61XVablPS3NAFDtzkxp51u9zXWUlvBsTo27MIuz5mj6mbEax6YlZcj/adxd65UOp2tJ8j22ec7mGPVqyHTWcdd6fdOjc383Z5QWOzVZW+TaFvVEjpbi2lZyULw2Jy1TWyRNSarP2xdd24JGaQtUO1CjvWW1dqy28Yu0Aimr4651o9VBHXetl2SnaPFu2rBH3T6n2p33xRe6cjWSTYu+b4GWk71I03fHVe96rWtaRZ3lZVpBmut6o5K0782WeVqgLanenleW6wt5+if136Ovc1WXuXz3HC2z3lYEgevIkSNG8oRzHa+5fRj2pmuJxryutp24Xb5ztNTCahtumTSxchlvkGpm2qi71i/IezbGGCf+ldru3a6mIdNZ213rtW5zLsxxqiXb5XFa0pPpWoG6818ULU9y2e6d29aaNGmOWm3e7tWn2WVfYnvAtf+Fmvu7OVnO/VBt+7OGzFf3+zkzqe+sY37UuS89oa8DLi1mjDQoQVvguv9syLxuAF82PwuRP/qPaZS//e1vePDBB5u1er1ecoflSeehWFincITVcfdjeWk5wpr6FJHybMyPmoCs3+Uh77FGHC03Yjq9TXo0kikJC3fpMc0tfZr1A+lwd/NMekmSSz2h4Qjv5MxqDkZvS/rZuJwVR9v0765leZm/Qf8R9T8Ypr5prbNc5oF5qB9Wc3qkd6fK4prTUjmd7j5LPtHgZSDLUj/3aupisi+biAEPRiL98BIkNKL2xW/WFXOdbsi2rW875fp6X3N/dmG7qX8/40fMfYEXl4EvH5pinUDuY+Wr5yLqlmzMzc/DnHqqzYiaQ6A8/cx8dOPll19uvAYmO5bGD8DM/pko4TMCyA1fBnI/uUbuL+zIWpaBjGVzMeX+hcCsFCQxiBM1ysmTJ7F//341FFhK16chbUUaFj44HTNXxWLBrxnEyb1Jkyb55hGmOgbyKspRvGoB5v4xC5i8BFnPciMlIhclBVj6pzlYXDgMKR+nsraO/AIDeRXRSFqeg6LiAmS+mISYZrwmTETWF357itEvQ1HuEsy7uWpTSSJXUrXu1x3C3HDDDeodERERtSSPAvmIESMC+kY3IiIiq/AokJ84ccJIRNR8IiIimrf7YyIKCh4F8iVLluD8+fNqiIiaw9ChQ41kdWPHjrV8EzoiK+HNbkR+ori42EhERI3hcSA/e/asekdEzWHTpk348ssv1ZB1ff/999i4caMaIgpOkZHefMxrVR4F8u7du6O83NktHxE1j9atWyMQHpqyb98+I5gTBbOrr77avzuE6dmzJ6sAiZrZoUOHcPHFF6sh67rkkktw5swZNUQUnBwOT5+t13geBfKBAwfiwIEDaoiImurgwYM4fvw4rrzySpVjXZdddpnxumHDBuOVKNjk5eXh3XffVUPe51EgHzRoEG655RY1RERN9dFHHyE6OhodOnRQOdYmwVwensJLcBRsysrKjINY84DWFzy+2a19+/bG6+7du41XIvLMzp07jQ6WAqnHRLk+KJcJ3nrrLRw9elTlEgW27du3Y9myZUZ/ENddd53K9T6PHmNqkjvXs7OzjScdyR16nTt3Rps2bYyytm3bGhf65bGMW7duNfKqGzJkiNEJxnfffVfrkfuYMWOM16+++sp4dae+cTgtnBZXLT0tcsQu/0M+L2fhgUzm36WXXmq8lzvZjxw5YuwnXHXq1Mk4ezl8+DCKiopUblXySNSOHTsaZzq19WHRHMue08JpcdXQafnhhx+MWjWJf/369UN8fLwawzc8PiMXMtHS8cOECROMM3S5xnfs2DEjuTLzqidX7solmdyVmcnkrkySK3flkly5K5dkcldmJpO7Mkmu3JVLcuWuXJLJXZmZxH//939jzZo1tZab3JVLcuWuXJLJXZmZTO7KJLlyVy7JlbtySSZ3ZWYyuSuT5MpduSRX7solmdyVyR3q1QNaIDKDuDh37hxKSkpqzAtX1cvM5MpduSSTuzIzmdyVSXLlrlySK3flkkzuysxkclcmyZW7ckmuXPPT0tIqt3uTa3n1ZHJXJsmVu3JJrtyVSzK5KzOTyV2ZJFfuyiW5clcuyeSuzEwmd2WSTL169cL111+PWbNm+TyIiyadkZP/k0AuZ33Tpk1TOUQU6LjdB5cmnZETERFRy2IgD3A9evQwrksSUfCQPgm6deumhijQMZAHOLlzeO/evWqIiAKd3KQpN4LZbDaVQ4GOgTzASS980mWm640ZRBS4duzYYbz6sq9valkM5AFOmkZcdNFFWLVqlcohokD2+eefIzY21tjuKTgwkAe4Ll264I477jACOTvvIQps0iHJ119/jbvuukvlUDBgIA8CN998s9EU5Z133uHjZ4kClGzb77//vnHgLs/DoODBQB4kfvGLXxgPunn22WeNm2GIKHDINi3bdqtWrTB9+nSVS8GCHcIEEbnp7W9/+5vRC9/s2bN5VytRAJDHZS5atMhobvboo4+qXAomDORBxgzmIjExESNHjjTeE5H1SB/gy5cvN54BzyAevBjIg5AEc3kqlewEJk2aZHTjaD7shoj8X2lpKdLT040HdUycONG4dEbBi4E8iMlOQHYG0uG/BPMrrrhClRCRv/riiy+MG1flyVtTpkzBiBEjVAkFKwbyIFdcXGzsFGTncM899xhPs5NnYxORf7Hb7UYz0k8//RQJCQlGEGdNGgkGcjLIzuHDDz80HkUrwfyWW24xboojopa1f/9+fPzxx0YaPny40bxMOnoiMjGQUxWffPKJkcrKyioDemhoqColIl+R/tLl8pcEcAncN910E29OJbcYyMktM6CfO3fOCOY33ngjq/GIfECeVrhmzRojgA8ZMoQBnOrFQE51kmAuO5VTp07hmmuuwbXXXms8UY2ImldBQQG+/PJLrFu3DsOGDWMApwZjIKcGkZvh5Dq67GwkoEuKiYlRpUTkiYqKisrg/d133+G6664zar/YgoQag4GcGuXbb7/FZ599hvXr1xv9t48bNw5XX301IiIi1BhEVB95gJE83EQCeElJiRG8b7jhBvaRTh5hICePbN261QjoOTk5Rv/OEswlsSqQyD25gVQ6YZIkB8Q9e/Y0zsAlgLO7ZGoKBnJqkqNHjxpnFrJzkmr3fv36YcyYMUbq06ePGosoeH3//feV24icfcsBr7mN8AZSag4M5NRs5Cxddlay05KmM6NHj648U2ebdAomBw8eNLYDST/88INRZW4G8N69e6uxiJoHAzk1uzNnzlQGdHmV6+ejRo0yArt0aEEUiKTq/JtvvsGGDRuM1KFDh8oz76uuukqNRdT8GMjJq6QL2Ly8POTn52PTpk1G1bsZ1AcMGKDGIrIuudvcDN7l5eVG3+fSokNS586d1VhE3sNATj4jT10zg7pcN5QmNmZQ7969uxqLmkLOCuU6rLT7l5qRkJAQtG3b1ggoF110Ea/JNhPp99wM3gcOHDCCtxnAw8PD1VhEvsFATi1i165dRkCXwC47RQnm5o5QnupEDbPpu3wUfv8NdmzfjtOny9ChXQgiOoegU3s9gIfKph2C8jMhOFmu4eiPFThT0UoP6l0wePBQXHbVWP11sPOLqF4Oh8NYZ6X6XA5EZV01A3i3bt3UWES+x0BOLW7nzp1GcxzZScpNQrKDlGvpDOrubfouD+s++xAHHQcQ3b8dLut7BkP6hqFdmxA1Rt2OnzqHH3afxpY9bWEvPouBAwfh2hvvYBtmN8zgvXHjRuNVrnWbwVse/0vkDxjIya8UFhYaZ+mSpIqYQf2CT9d8gLXZn2Bg71DccGUF+tnaqpKm+d5+Bp9tCkHJqTa4feLdGDFqnCoJTtWDt9RayCUg6SOhb9++aiwi/8FATn5LbiIyg7pc8w3WoL7hqy/wwfvpGD4oFBPHhKBtA8+8G+tIaQU++CoExSVtMPW+BzFo0BBVEviqB2/pA0ECt6ShQ4eqsYj8EwM5+b3z588bVe9mUD979mxlUL/yyivRtWtXNWZgkYOX15b8L9riGO4dL9e9W6kS79p78Az+/amGS/oNxX0zfqtyA4/cpCYHi2bwluvc5pk3m0mSlTCQk6VI8x4zqMsOWB46IdctJcnON1BuOtq08Wu8s/xfmDSuDUYOba1yfWv1txpyvj+Hmb+ZEzBPvJM+zmW9kaaQmzdvNu7ml4NC8+xb7vAnshoGcrIsOWOVnbKZZNgM6pIiIyPVmNayetU7yNvwBX47KRSdO7RMEDfZD5zBsg8rMPmeRMSMtOa18+3btxtn3pKklzVphmce+EmNTseOHdWYRNbEQE4BQdpPSzA3q0qPHTtm7KTNoG6Vm5RWvL0MR/Zvwa8mtmwAd1V2+jz+9s4Z3BA3Eddcf6vK9W/S778ZvIuKiow7zCVwm+sD29NTIGEgp4AjHaG4BnXp910euSqBXXbm/trMasXyZTh+uAC/uMU7N7M11V/fOoNrb5yI2GtvVjn+xQzckvbu3WvcsGYGbklEgYqBnALauXPnjGBuJmmnLoHcPFsfNmyYGrNlffJhOoq25uDXfnQm7s5fXi/D5Km/xOVXtvzjak+fPm1c6zaDtyxb6fbXDNz+smyJvI2BnIKGrOqyw5edv6Q9e/bgkksuMXb6ZmCXZ6v72pbN32Jl+mt4fHqYyvFfJ346r5+Zn8Yjc/7cIjcWHj9+vHIZymtpaWllbYsk9lRHwYiBnIKW3PhkBnV536NHj8qALskXj16Vu/CffvL3mDO1Dbp28u+zcVPh7gq8t74t/jD/f1SOd8mlETNwS5KWCmbglhQod9QTeYqBnEgnZ+dmUJckHc64nql760EYLy36H8T0O4KrL/V9TUBTvJsDhHa9Enfc/XOV07zkATuuZ96yPMzALQ/bYd/mRBcwkBNVY54Bmsk8AzTP1Jurj+2N+V9j/dp/4zd3hqoca/mvZacw+9E/GzUZzUH63DcDt9x1LvPZDN6SfFFDQmRFDOREdZC26a5BXYL8ZZddZtxIdfnllxvXZ2vzwgsvGB3XvPrqqyqnqj/PfxSPJLRCRGdrVKlXt7noHHK298B/zP6DyqlqxowZuPfeezFx4kSVU5M8BlSCtjxNTJ6I179//yrBm4jqx0BO1EDSVawE8y1bthjJbJ8sQV2C+/XXX6/GdHrssceMnsSkC9lHHnnECPymLz9fjX0/fISf3WitKvXqFi4/g6kzflelnf5nn32GN99802jLf9111+Ghhx5SJcCPP/6InJycyuAtB0oyX8zEm9WIGo+BnMhDcgZpBnUJStIHvAR0OZMcMmQInn/+eSOYCbnGPmvWLKM7UCFn43OntfZZ/+neUrjrDNbt6I1fzfq9MbxmzRq8/fbblb87IiICf/jDH7Bu3TojeEv1ueSZNRpyvbtnz57GuETkGQZyomYggcs8y5TALm2aq5MANnPmTHTp0gWfr3oJv5pozWvj1cm18v83/6/4/PPPsWLFCuPxs6aQkBCj2Z9UmbsG73bt2qkxiKipGMiJmpl0QiNnoVKtXp08pGNAfxvuiT2Bof38v914Q6z+9jy+23MRvi/cblSVV3fttdfi4YcfVkNE1NysXa9H5IfkOrB0XOLOiRMnsGnLDuw9dFblWF/hzqP45tvv3AZxIfcSEJH3MJATNbOvvvrKeIiLkPbPUqUu18ilelnucu/VLQwDL/bPquXSoj3IXn8IjtMqowGuHtYBnTu1M5rmSecs8lvlN5vNxeTgRS43EJF3sGqdyEvef/999O7d27iz3WazGU/cen9FGmytcvXg17g20RJg8w6pgRrCMCymJ2zNcGyQu/ivGPf8EKR+PgmJNpXZAG9/VoEho+7HVcOH46effjLuEZAkDy+ZOnWqGouIvIGBnMiHnnv2v/DATScb3XbcGWDVQA2ND7y18TSQb9xWhp0nR2LKz36pcojIV1i1TuRD8pAPzzuAkQD7GLRt1VPzBPGm6BfZVj/7rnlzHxF5HwM5kQ+FoEK984YKlB4/jfJzavCnUyjcWPc17/L9h/TyPcgt0j+n8jwhByeuzc6IyHcYyIl8RM7Gwzt5se24YzuSRr2A2W9tw8LfvYLI4S9i2LS3MOH+1xAZ9xYWF6rxDD8i4/GX0X78a3r5Wxh32wuIuuNDLN2mij2gnTePIIjIlxjIiXxEmmd16tC0Ta5MP+OWs27XVP1MeumyQpTH3Yacjc6q9+J/jEbM4T2Y/fEBNQaQv+wDTEmvQGLKL1BSqI9X+ChyUi5GWLEawQMhIbzdhqglMJAT+Yh04dqmdVOC3TbMvOMFROhn3RfSh8hwqGLT3aMx747eiOrgHLTFDUG8vCn6Ecaop/cgfYke1KfchMXTeiJcLtm3DkXU8Csw/QYZwTMhYCAnagkM5EQ+4uyuVA14pC/mPf8zrHndNcUiLkIV16FKYzfHj8g9DMTF9IJ3nrJORL7EQE7kI9K/+Okmdegm7cX7Im6sa/Kg/XjJKWTrL+Edmvd6vaafkxOR7zGQE/mI9PJ24qfzaqgFRXREnP5iP+y+S1VPadydELUIbnlEPiKB/GSZHwTyft0Q1wPI//Ig7CqrObRu3Ua9IyJfYiAn8qWQplRnl6MgX9qFV0+N6xsd6I3ERwYAn3+I6X/ZjOyiUyjdfwgZb3yI+WlqlEYqPlqBnj31owMi8jkGciIfkj7XDxzx9EL5Hjz1iLQLr55ykd3Ivliipt2BvCeGwKEH7wm3vYiI8e9iaXE/zHskWo3ROPbiCvSPGqSGiMiX2Nc6kQ+t+XglWpWswfgRbVVOCztXgdJT5+ROPIQ34aErr354Ftfc9lsMHjxY5RCRr/CMnMiHhl0xClt2+9Hd3a1DEd6laUFcFB04yyBO1EIYyIl8KDIyEkd+DKxKsH2HzqJnrxZ+agtREGMgJ/KxK6+8Cl8VBk6/5LmFoRgTe6MaIiJfYyAn8rFrb4zHZ9958ylovrW56DRGj7lWDRGRrzGQE/lYr1690K5DBHYVn1E51vXF5vMYPny4GiKilsBATtQCbr/jZ/jgK+t3afrJN+W47Y571RARtQQGcqIWMGRoNLTWESjcbd0q9k/ygOExI9Ghg3rMGhG1CAZyohZyz32/wltrrVm9fqrsPD7/rhyTpz6gcoiopTCQE7UQaYo2ctQYvPulyrCQVz8+j0l336OGiKglMZATtaA7J8/AtgOh2GK3ThX76jygy0X9MfLq61UOEbUkBnKiFvYfyf8Pyz+twNEf/b9t+Rb7OXy9FZjx4MMqh4haGgM5UQvr2rUrfn7/f+DvK86g/IwfPOa0FrsdZ4wDjocena9yiMgfMJAT+YEhl16GSQn34X/SylF22v+6cJUgvnTVefxm9v9Dly5dVC4R+QM+/YzIj3yXvx4Zb/8Lv53UFr0uasqzy5vPlqJzWP7ZWT2I/wG9e/dWuUTkLxjIifzMzh0/4LVXFuPua9tixOCWrTSTG9vkmrhUp/NMnMg/MZAT+aGysjK8vPj/Q88up3DfeN/3AHey7Dxe+/g8unaLws8feEjlEpE/YiAn8mNrPlqBzz5dgzuvaY/RQ30T0D/+VsO6Tadx9+RpGDGaD0Mh8ncM5ER+7sSJE0h/awn27y1C/Jg2iBnsnWvnn286jzXfnja6XZ089Zcql4j8HQM5kUUcPHgQH2X+Gzt3bMfVw9pj7KXn0a1ra1Xqmb0HzyKnMBTf208jJmYEbrvjZ2jfvr0qJSIrYCAnsphz587hy89X4+uvvsSJ4yUY2rctBveuQD9bKHpG1H62Llv6gSNnYS8+j237W2NX8Vn0stkwdlwcRo6OVWMRkdUwkBNZmGy+hYWF2LntO+zZvQuHDx/G+fMVCIFs1s7OZTQtRN/SW6F167aIjLShX/+BGDT0SgwcONAoJyJrYyAnIiKyMPbsRkREZGEM5ERERBbGQE5ERGRhDOREREQWxkBORERkYQzkREREFsZATkREZGEM5ERERBbGQE5ERGRhDOREREQWxkBORERkYQzkREREFsZATkREZGEM5ERERBbGQE5ERGRhDOREREQWxkBORERkYQzkREREFsZATkREZGEM5ERERBbGQE5ERGRhDOREREQWxkBORERkYQzkREREFsZATkREZGEM5ERERBbGQE5ERGRhDOREREQWxkBORERkYQzkREREFsZATkREZGEM5ERERBbGQE5ERGRhDOREREQWxkBORERkYQzkREREFsZATkREZGEM5ERERBbGQE5ERGRhDOREREQWxkBORERkYQzkREREFsZATkREZGEM5ERERBbGQE5ERGRhDOREREQWxkBORERkYQzkREREFsZATkREZGEM5ERERBbGQE5ERGRhDOREREQWxkBORERkYQzkREREFsZATkREZGEM5ERERBbGQE5ERGRhDOREREQWxkBORERkYQzkREREFsZATkREZGEM5ERERBbGQE5ERGRZwP8PP2b5lxEivZMAAAAASUVORK5CYII=;" parent="mmhwrJUQlcTfJpM30unk-1" vertex="1">
          <mxGeometry x="70" y="49.809999999999995" width="299" height="253.37" as="geometry" />
        </mxCell>
        <mxCell id="mmhwrJUQlcTfJpM30unk-10" style="edgeStyle=orthogonalEdgeStyle;rounded=0;orthogonalLoop=1;jettySize=auto;html=1;startArrow=none;startFill=0;endArrow=open;endFill=0;strokeColor=#808080;strokeWidth=2;exitX=1;exitY=0.25;exitDx=0;exitDy=0;entryX=0;entryY=0.5;entryDx=0;entryDy=0;" parent="AeC9Hzk0l6iAubKt0yW3-4" source="mmhwrJUQlcTfJpM30unk-1" target="mmhwrJUQlcTfJpM30unk-31" edge="1">
          <mxGeometry relative="1" as="geometry">
            <Array as="points">
              <mxPoint x="540" y="291" />
              <mxPoint x="540" y="190" />
            </Array>
            <mxPoint x="550" y="321" as="sourcePoint" />
            <mxPoint x="560" y="150" as="targetPoint" />
          </mxGeometry>
        </mxCell>
        <mxCell id="mmhwrJUQlcTfJpM30unk-47" value="2" style="rounded=1;whiteSpace=wrap;html=1;fillColor=#007CBD;strokeColor=none;fontColor=#FFFFFF;fontStyle=1;fontSize=22;labelBackgroundColor=none;" parent="AeC9Hzk0l6iAubKt0yW3-4" vertex="1">
          <mxGeometry x="600" y="363" width="40" height="38" as="geometry" />
        </mxCell>
        <mxCell id="mmhwrJUQlcTfJpM30unk-52" style="edgeStyle=orthogonalEdgeStyle;rounded=0;orthogonalLoop=1;jettySize=auto;html=1;startArrow=none;startFill=0;endArrow=open;endFill=0;strokeColor=#808080;strokeWidth=2;exitX=1;exitY=0.5;exitDx=0;exitDy=0;entryX=0;entryY=0.5;entryDx=0;entryDy=0;entryPerimeter=0;" parent="AeC9Hzk0l6iAubKt0yW3-4" source="mmhwrJUQlcTfJpM30unk-1" target="mmhwrJUQlcTfJpM30unk-53" edge="1">
          <mxGeometry relative="1" as="geometry">
            <mxPoint x="524" y="581" as="sourcePoint" />
            <mxPoint x="646" y="581" as="targetPoint" />
          </mxGeometry>
        </mxCell>
        <mxCell id="mmhwrJUQlcTfJpM30unk-53" value="" style="sketch=0;points=[[0,0,0],[0.25,0,0],[0.5,0,0],[0.75,0,0],[1,0,0],[0,1,0],[0.25,1,0],[0.5,1,0],[0.75,1,0],[1,1,0],[0,0.25,0],[0,0.5,0],[0,0.75,0],[1,0.25,0],[1,0.5,0],[1,0.75,0]];outlineConnect=0;fontColor=#232F3E;gradientColor=#FF4F8B;gradientDirection=north;fillColor=#BC1356;strokeColor=#ffffff;dashed=0;verticalLabelPosition=bottom;verticalAlign=top;align=center;html=1;fontSize=12;fontStyle=0;aspect=fixed;shape=mxgraph.aws4.resourceIcon;resIcon=mxgraph.aws4.sns;" parent="AeC9Hzk0l6iAubKt0yW3-4" vertex="1">
          <mxGeometry x="674" y="377.5" width="80" height="80" as="geometry" />
        </mxCell>
        <mxCell id="mmhwrJUQlcTfJpM30unk-54" value="" style="sketch=0;points=[[0,0,0],[0.25,0,0],[0.5,0,0],[0.75,0,0],[1,0,0],[0,1,0],[0.25,1,0],[0.5,1,0],[0.75,1,0],[1,1,0],[0,0.25,0],[0,0.5,0],[0,0.75,0],[1,0.25,0],[1,0.5,0],[1,0.75,0]];outlineConnect=0;fontColor=#232F3E;gradientColor=#FF4F8B;gradientDirection=north;fillColor=#BC1356;strokeColor=#ffffff;dashed=0;verticalLabelPosition=bottom;verticalAlign=top;align=center;html=1;fontSize=12;fontStyle=0;aspect=fixed;shape=mxgraph.aws4.resourceIcon;resIcon=mxgraph.aws4.sns;" parent="AeC9Hzk0l6iAubKt0yW3-4" vertex="1">
          <mxGeometry x="680" y="519" width="80" height="80" as="geometry" />
        </mxCell>
        <mxCell id="mmhwrJUQlcTfJpM30unk-55" style="edgeStyle=orthogonalEdgeStyle;rounded=0;orthogonalLoop=1;jettySize=auto;html=1;startArrow=none;startFill=0;endArrow=open;endFill=0;strokeColor=#808080;strokeWidth=2;entryX=0;entryY=0.5;entryDx=0;entryDy=0;entryPerimeter=0;exitX=1;exitY=0.75;exitDx=0;exitDy=0;" parent="AeC9Hzk0l6iAubKt0yW3-4" source="mmhwrJUQlcTfJpM30unk-1" target="mmhwrJUQlcTfJpM30unk-54" edge="1">
          <mxGeometry relative="1" as="geometry">
            <mxPoint x="530" y="541" as="sourcePoint" />
            <mxPoint x="756" y="706" as="targetPoint" />
            <Array as="points">
              <mxPoint x="520" y="467" />
              <mxPoint x="520" y="559" />
            </Array>
          </mxGeometry>
        </mxCell>
        <mxCell id="mmhwrJUQlcTfJpM30unk-56" value="&lt;b&gt;&lt;font style=&quot;font-size: 14px;&quot;&gt;Success SNS Topic&lt;/font&gt;&lt;/b&gt;" style="text;html=1;align=center;verticalAlign=middle;resizable=0;points=[];autosize=1;strokeColor=none;fillColor=none;" parent="AeC9Hzk0l6iAubKt0yW3-4" vertex="1">
          <mxGeometry x="639" y="451" width="150" height="30" as="geometry" />
        </mxCell>
        <mxCell id="mmhwrJUQlcTfJpM30unk-57" value="&lt;b&gt;&lt;font style=&quot;font-size: 14px;&quot;&gt;Failure SNS Topic&lt;/font&gt;&lt;/b&gt;" style="text;html=1;align=center;verticalAlign=middle;resizable=0;points=[];autosize=1;strokeColor=none;fillColor=none;" parent="AeC9Hzk0l6iAubKt0yW3-4" vertex="1">
          <mxGeometry x="650" y="599" width="140" height="30" as="geometry" />
        </mxCell>
        <mxCell id="mmhwrJUQlcTfJpM30unk-59" value="3" style="rounded=1;whiteSpace=wrap;html=1;fillColor=#007CBD;strokeColor=none;fontColor=#FFFFFF;fontStyle=1;fontSize=22;labelBackgroundColor=none;" parent="AeC9Hzk0l6iAubKt0yW3-4" vertex="1">
          <mxGeometry x="600" y="481" width="40" height="38" as="geometry" />
        </mxCell>
        <mxCell id="mmhwrJUQlcTfJpM30unk-60" value="&lt;b&gt;&lt;font style=&quot;font-size: 14px;&quot;&gt;Batch Job&lt;/font&gt;&lt;/b&gt;" style="text;html=1;align=center;verticalAlign=middle;resizable=0;points=[];autosize=1;strokeColor=none;fillColor=none;" parent="AeC9Hzk0l6iAubKt0yW3-4" vertex="1">
          <mxGeometry x="809.38" y="339.9" width="90" height="30" as="geometry" />
        </mxCell>
        <mxCell id="mmhwrJUQlcTfJpM30unk-61" value="" style="rounded=0;whiteSpace=wrap;html=1;fillColor=none;dashed=1;dashPattern=1 1;" parent="AeC9Hzk0l6iAubKt0yW3-4" vertex="1">
          <mxGeometry width="1210" height="660" as="geometry" />
        </mxCell>
        <mxCell id="mmhwrJUQlcTfJpM30unk-62" value="&lt;b&gt;&lt;font style=&quot;font-size: 14px;&quot;&gt;CBR Prod&lt;/font&gt;&lt;/b&gt;" style="text;html=1;align=center;verticalAlign=middle;resizable=0;points=[];autosize=1;strokeColor=none;fillColor=none;" parent="AeC9Hzk0l6iAubKt0yW3-4" vertex="1">
          <mxGeometry y="21" width="90" height="30" as="geometry" />
        </mxCell>
        <mxCell id="mmhwrJUQlcTfJpM30unk-63" value="" style="sketch=0;outlineConnect=0;fontColor=#232F3E;gradientColor=none;fillColor=#4D27AA;strokeColor=none;dashed=0;verticalLabelPosition=bottom;verticalAlign=top;align=center;html=1;fontSize=12;fontStyle=0;aspect=fixed;pointerEvents=1;shape=mxgraph.aws4.glue_data_catalog;container=0;" parent="AeC9Hzk0l6iAubKt0yW3-4" vertex="1">
          <mxGeometry x="853.91" y="251" width="43.5" height="47.13" as="geometry" />
        </mxCell>
        <mxCell id="mmhwrJUQlcTfJpM30unk-66" value="" style="sketch=0;points=[[0,0,0],[0.25,0,0],[0.5,0,0],[0.75,0,0],[1,0,0],[0,1,0],[0.25,1,0],[0.5,1,0],[0.75,1,0],[1,1,0],[0,0.25,0],[0,0.5,0],[0,0.75,0],[1,0.25,0],[1,0.5,0],[1,0.75,0]];outlineConnect=0;fontColor=#232F3E;gradientColor=#60A337;gradientDirection=north;fillColor=#277116;strokeColor=#ffffff;dashed=0;verticalLabelPosition=bottom;verticalAlign=top;align=center;html=1;fontSize=12;fontStyle=0;aspect=fixed;shape=mxgraph.aws4.resourceIcon;resIcon=mxgraph.aws4.s3;container=0;" parent="AeC9Hzk0l6iAubKt0yW3-4" vertex="1">
          <mxGeometry x="961" y="250.13" width="48" height="48" as="geometry" />
        </mxCell>
        <mxCell id="mmhwrJUQlcTfJpM30unk-67" value="&lt;b&gt;Cbr Processed&lt;/b&gt;" style="text;html=1;align=center;verticalAlign=middle;resizable=0;points=[];autosize=1;strokeColor=none;fillColor=none;container=0;" parent="AeC9Hzk0l6iAubKt0yW3-4" vertex="1">
          <mxGeometry x="930" y="301" width="110" height="30" as="geometry" />
        </mxCell>
        <mxCell id="mmhwrJUQlcTfJpM30unk-68" value="" style="edgeStyle=orthogonalEdgeStyle;html=1;endArrow=block;elbow=vertical;startArrow=none;endFill=1;strokeColor=#545B64;rounded=0;entryX=0;entryY=0.5;entryDx=0;entryDy=0;entryPerimeter=0;" parent="AeC9Hzk0l6iAubKt0yW3-4" source="mmhwrJUQlcTfJpM30unk-63" target="mmhwrJUQlcTfJpM30unk-66" edge="1">
          <mxGeometry width="100" relative="1" as="geometry">
            <mxPoint x="1010" y="-189" as="sourcePoint" />
            <mxPoint x="650" y="201" as="targetPoint" />
          </mxGeometry>
        </mxCell>
        <mxCell id="mmhwrJUQlcTfJpM30unk-69" value="" style="edgeStyle=orthogonalEdgeStyle;html=1;endArrow=block;elbow=vertical;startArrow=none;endFill=1;strokeColor=#545B64;rounded=0;exitX=1;exitY=0.75;exitDx=0;exitDy=0;" parent="AeC9Hzk0l6iAubKt0yW3-4" edge="1" target="mmhwrJUQlcTfJpM30unk-63">
          <mxGeometry width="100" relative="1" as="geometry">
            <mxPoint x="800.9106194690266" y="275.03686447733253" as="sourcePoint" />
            <mxPoint x="843.9115181818174" y="276.02180999999996" as="targetPoint" />
          </mxGeometry>
        </mxCell>
        <mxCell id="mmhwrJUQlcTfJpM30unk-11" value="" style="sketch=0;points=[[0,0,0],[0.25,0,0],[0.5,0,0],[0.75,0,0],[1,0,0],[0,1,0],[0.25,1,0],[0.5,1,0],[0.75,1,0],[1,1,0],[0,0.25,0],[0,0.5,0],[0,0.75,0],[1,0.25,0],[1,0.5,0],[1,0.75,0]];outlineConnect=0;fontColor=#232F3E;gradientColor=#F78E04;gradientDirection=north;fillColor=#D05C17;strokeColor=#ffffff;dashed=0;verticalLabelPosition=bottom;verticalAlign=top;align=center;html=1;fontSize=12;fontStyle=0;aspect=fixed;shape=mxgraph.aws4.resourceIcon;resIcon=mxgraph.aws4.batch;" parent="AeC9Hzk0l6iAubKt0yW3-4" vertex="1">
          <mxGeometry x="613.3" y="139.32889987556234" width="46.902654867256636" height="46.902654867256636" as="geometry" />
        </mxCell>
        <mxCell id="mmhwrJUQlcTfJpM30unk-12" value="" style="whiteSpace=wrap;html=1;aspect=fixed;fillColor=none;strokeColor=#EB8B05;" parent="AeC9Hzk0l6iAubKt0yW3-4" vertex="1">
          <mxGeometry x="613.3" y="139.32889987556234" width="187.61061946902655" height="187.61061946902655" as="geometry" />
        </mxCell>
        <mxCell id="mmhwrJUQlcTfJpM30unk-14" value="" style="sketch=0;points=[[0,0,0],[0.25,0,0],[0.5,0,0],[0.75,0,0],[1,0,0],[0,1,0],[0.25,1,0],[0.5,1,0],[0.75,1,0],[1,1,0],[0,0.25,0],[0,0.5,0],[0,0.75,0],[1,0.25,0],[1,0.5,0],[1,0.75,0]];outlineConnect=0;fontColor=#232F3E;gradientColor=#F78E04;gradientDirection=north;fillColor=#D05C17;strokeColor=#ffffff;dashed=0;verticalLabelPosition=bottom;verticalAlign=top;align=center;html=1;fontSize=12;fontStyle=0;aspect=fixed;shape=mxgraph.aws4.resourceIcon;resIcon=mxgraph.aws4.ecs;" parent="AeC9Hzk0l6iAubKt0yW3-4" vertex="1">
          <mxGeometry x="683.653982300885" y="214.3280607691571" width="46.902654867256636" height="46.902654867256636" as="geometry" />
        </mxCell>
        <mxCell id="mmhwrJUQlcTfJpM30unk-15" value="" style="sketch=0;outlineConnect=0;fontColor=#232F3E;gradientColor=none;fillColor=#4D27AA;strokeColor=none;dashed=0;verticalLabelPosition=bottom;verticalAlign=top;align=center;html=1;fontSize=12;fontStyle=0;aspect=fixed;pointerEvents=1;shape=mxgraph.aws4.glue_data_catalog;" parent="AeC9Hzk0l6iAubKt0yW3-4" vertex="1">
          <mxGeometry x="744.6274336283186" y="70.99966435743795" width="48.7787610619469" height="52.84053097345133" as="geometry" />
        </mxCell>
        <mxCell id="mmhwrJUQlcTfJpM30unk-18" value="" style="sketch=0;points=[[0,0,0],[0.25,0,0],[0.5,0,0],[0.75,0,0],[1,0,0],[0,1,0],[0.25,1,0],[0.5,1,0],[0.75,1,0],[1,1,0],[0,0.25,0],[0,0.5,0],[0,0.75,0],[1,0.25,0],[1,0.5,0],[1,0.75,0]];outlineConnect=0;fontColor=#232F3E;gradientColor=#60A337;gradientDirection=north;fillColor=#277116;strokeColor=#ffffff;dashed=0;verticalLabelPosition=bottom;verticalAlign=top;align=center;html=1;fontSize=12;fontStyle=0;aspect=fixed;shape=mxgraph.aws4.resourceIcon;resIcon=mxgraph.aws4.s3;" parent="AeC9Hzk0l6iAubKt0yW3-4" vertex="1">
          <mxGeometry x="830.9283185840709" y="73.3296382891989" width="46.902654867256636" height="46.902654867256636" as="geometry" />
        </mxCell>
        <mxCell id="mmhwrJUQlcTfJpM30unk-19" value="" style="edgeStyle=orthogonalEdgeStyle;html=1;endArrow=none;elbow=vertical;startArrow=open;startFill=0;strokeColor=#545B64;rounded=0;entryX=0;entryY=0.5;entryDx=0;entryDy=0;entryPerimeter=0;" parent="AeC9Hzk0l6iAubKt0yW3-4" source="mmhwrJUQlcTfJpM30unk-15" target="mmhwrJUQlcTfJpM30unk-18" edge="1">
          <mxGeometry width="100" relative="1" as="geometry">
            <mxPoint x="829.0522123893804" y="87.4994797540287" as="sourcePoint" />
            <mxPoint x="913.4769911504425" y="87.4994797540287" as="targetPoint" />
            <Array as="points" />
          </mxGeometry>
        </mxCell>
        <mxCell id="mmhwrJUQlcTfJpM30unk-25" value="&lt;b&gt;&lt;font style=&quot;font-size: 13px;&quot;&gt;provider620&lt;/font&gt;&lt;/b&gt;" style="text;html=1;align=center;verticalAlign=middle;resizable=0;points=[];autosize=1;strokeColor=none;fillColor=none;container=0;" parent="AeC9Hzk0l6iAubKt0yW3-4" vertex="1">
          <mxGeometry x="807.4769911504425" y="41" width="100" height="30" as="geometry" />
        </mxCell>
        <mxCell id="mmhwrJUQlcTfJpM30unk-27" value="" style="edgeStyle=orthogonalEdgeStyle;html=1;endArrow=none;elbow=vertical;startArrow=block;startFill=1;strokeColor=#545B64;rounded=0;fontSize=13;fontColor=#000000;entryX=0;entryY=0.5;entryDx=0;entryDy=0;entryPerimeter=0;exitX=1;exitY=0.25;exitDx=0;exitDy=0;" parent="AeC9Hzk0l6iAubKt0yW3-4" source="mmhwrJUQlcTfJpM30unk-12" target="mmhwrJUQlcTfJpM30unk-26" edge="1">
          <mxGeometry width="100" relative="1" as="geometry">
            <mxPoint x="866.5743362831859" y="206.32815027384027" as="sourcePoint" />
            <mxPoint x="972.1053097345132" y="177.01427187047523" as="targetPoint" />
          </mxGeometry>
        </mxCell>
        <mxCell id="mmhwrJUQlcTfJpM30unk-30" value="" style="edgeStyle=orthogonalEdgeStyle;html=1;endArrow=none;elbow=vertical;startArrow=block;startFill=1;strokeColor=#545B64;rounded=0;exitX=0.5;exitY=0;exitDx=0;exitDy=0;" parent="AeC9Hzk0l6iAubKt0yW3-4" source="mmhwrJUQlcTfJpM30unk-12" target="mmhwrJUQlcTfJpM30unk-15" edge="1">
          <mxGeometry width="100" relative="1" as="geometry">
            <mxPoint x="566.3973451327433" y="289.3272216627519" as="sourcePoint" />
            <mxPoint x="660.2026548672566" y="289.3272216627519" as="targetPoint" />
            <Array as="points">
              <mxPoint x="707.1053097345133" y="99.32934739897848" />
            </Array>
          </mxGeometry>
        </mxCell>
        <mxCell id="mmhwrJUQlcTfJpM30unk-31" value="" style="rounded=0;whiteSpace=wrap;html=1;fillColor=none;dashed=1;dashPattern=12 12;" parent="AeC9Hzk0l6iAubKt0yW3-4" vertex="1">
          <mxGeometry x="600" y="41" width="508.76" height="298.9" as="geometry" />
        </mxCell>
        <mxCell id="mmhwrJUQlcTfJpM30unk-33" value="" style="group" parent="AeC9Hzk0l6iAubKt0yW3-4" vertex="1" connectable="0">
          <mxGeometry x="853.9106194690266" y="166.23201385537254" width="241.66371681415933" height="39.899044337327" as="geometry" />
        </mxCell>
        <mxCell id="mmhwrJUQlcTfJpM30unk-21" value="main.py" style="text;html=1;align=center;verticalAlign=middle;resizable=0;points=[];autosize=1;strokeColor=none;fillColor=none;fontSize=13;fontColor=#000000;container=0;" parent="mmhwrJUQlcTfJpM30unk-33" vertex="1">
          <mxGeometry x="171.66371681415933" y="6.0236075124422825" width="70" height="30" as="geometry" />
        </mxCell>
        <mxCell id="mmhwrJUQlcTfJpM30unk-22" value="" style="edgeStyle=orthogonalEdgeStyle;rounded=0;orthogonalLoop=1;jettySize=auto;html=1;fontSize=13;fontColor=#000000;entryX=1.013;entryY=0.508;entryDx=0;entryDy=0;entryPerimeter=0;" parent="mmhwrJUQlcTfJpM30unk-33" source="mmhwrJUQlcTfJpM30unk-21" target="mmhwrJUQlcTfJpM30unk-23" edge="1">
          <mxGeometry relative="1" as="geometry" />
        </mxCell>
        <mxCell id="mmhwrJUQlcTfJpM30unk-23" value="" style="sketch=0;aspect=fixed;html=1;points=[];align=center;image;fontSize=12;image=img/lib/mscae/Docker.svg;fontColor=#000000;container=0;" parent="mmhwrJUQlcTfJpM30unk-33" vertex="1">
          <mxGeometry x="73.87168141592917" y="2.1033005447050357" width="43.8451036673923" height="35.95298500726169" as="geometry" />
        </mxCell>
        <mxCell id="mmhwrJUQlcTfJpM30unk-26" value="" style="sketch=0;points=[[0,0,0],[0.25,0,0],[0.5,0,0],[0.75,0,0],[1,0,0],[0,1,0],[0.25,1,0],[0.5,1,0],[0.75,1,0],[1,1,0],[0,0.25,0],[0,0.5,0],[0,0.75,0],[1,0.25,0],[1,0.5,0],[1,0.75,0]];outlineConnect=0;fontColor=#232F3E;gradientColor=#F78E04;gradientDirection=north;fillColor=#D05C17;strokeColor=#ffffff;dashed=0;verticalLabelPosition=bottom;verticalAlign=top;align=center;html=1;fontSize=12;fontStyle=0;aspect=fixed;shape=mxgraph.aws4.resourceIcon;resIcon=mxgraph.aws4.ecr;container=0;" parent="mmhwrJUQlcTfJpM30unk-33" vertex="1">
          <mxGeometry width="39.89904433732699" height="39.89904433732699" as="geometry" />
        </mxCell>
        <mxCell id="mmhwrJUQlcTfJpM30unk-28" value="" style="edgeStyle=orthogonalEdgeStyle;rounded=0;orthogonalLoop=1;jettySize=auto;html=1;fontSize=13;fontColor=#000000;entryX=1;entryY=0.5;entryDx=0;entryDy=0;entryPerimeter=0;" parent="mmhwrJUQlcTfJpM30unk-33" source="mmhwrJUQlcTfJpM30unk-23" target="mmhwrJUQlcTfJpM30unk-26" edge="1">
          <mxGeometry relative="1" as="geometry" />
        </mxCell>
        <mxCell id="mmhwrJUQlcTfJpM30unk-48" value="1" style="rounded=1;whiteSpace=wrap;html=1;fillColor=#007CBD;strokeColor=none;fontColor=#FFFFFF;fontStyle=1;fontSize=22;labelBackgroundColor=none;" parent="AeC9Hzk0l6iAubKt0yW3-4" vertex="1">
          <mxGeometry x="600" y="41" width="40" height="38" as="geometry" />
        </mxCell>
      </root>
    </mxGraphModel>
  </diagram>
</mxfile>
